ply
format ascii 1.0
comment Created by Blender 2.80 (sub 75) - www.blender.org, source file: ''
element vertex 16
property float x
property float y
property float z
property float s
property float t
element face 12
property list uchar uint vertex_indices
end_header
-1.000000 -1.000000 -1.000000 0.000000 0.000000
-1.000000 -1.000000 1.000000 0.000000 1.000000
-1.000000 1.000000 1.000000 1.000000 1.000000
-1.000000 1.000000 -1.000000 1.000000 0.000000
-1.000000 1.000000 -1.000000 0.000000 0.000000
-1.000000 1.000000 1.000000 0.000000 1.000000
1.000000 1.000000 1.000000 1.000000 1.000000
1.000000 1.000000 -1.000000 1.000000 0.000000
1.000000 -1.000000 1.000000 0.000000 1.000000
1.000000 -1.000000 -1.000000 0.000000 0.000000
1.000000 -1.000000 -1.000000 1.000000 0.000000
1.000000 -1.000000 1.000000 1.000000 1.000000
-1.000000 1.000000 -1.000000 0.000000 1.000000
1.000000 1.000000 -1.000000 1.000000 1.000000
-1.000000 -1.000000 1.000000 0.000000 0.000000
1.000000 -1.000000 1.000000 1.000000 0.000000
3 0 1 2
3 0 2 3
3 4 5 6
3 4 6 7
3 7 6 8
3 7 8 9
3 10 11 1
3 10 1 0
3 12 13 10
3 12 10 0
3 6 5 14
3 6 14 15
